<svg xmlns="http://www.w3.org/2000/svg" width="29" height="29" viewBox="0 0 29 29" fill="none">
  <path d="M0 0.90625C0 0.405742 0.405742 0 0.90625 0H6.34375C6.84426 0 7.25 0.405742 7.25 0.90625C7.25 1.40676 6.84426 1.8125 6.34375 1.8125H1.8125V6.34375C1.8125 6.84426 1.40676 7.25 0.90625 7.25C0.405742 7.25 0 6.84426 0 6.34375V0.90625Z" fill="#1E1E1E"/>
  <path d="M21.75 0.90625C21.75 0.405742 22.1557 0 22.6562 0H28.0938C28.5943 0 29 0.405742 29 0.90625V6.34375C29 6.84426 28.5943 7.25 28.0938 7.25C27.5932 7.25 27.1875 6.84426 27.1875 6.34375V1.8125H22.6562C22.1557 1.8125 21.75 1.40676 21.75 0.90625Z" fill="#1E1E1E"/>
  <path d="M0.90625 21.75C1.40676 21.75 1.8125 22.1557 1.8125 22.6562V27.1875H6.34375C6.84426 27.1875 7.25 27.5932 7.25 28.0938C7.25 28.5943 6.84426 29 6.34375 29H0.90625C0.405742 29 0 28.5943 0 28.0938V22.6562C0 22.1557 0.405742 21.75 0.90625 21.75Z" fill="#1E1E1E"/>
  <path d="M28.0938 21.75C28.5943 21.75 29 22.1557 29 22.6562V28.0938C29 28.5943 28.5943 29 28.0938 29H22.6562C22.1557 29 21.75 28.5943 21.75 28.0938C21.75 27.5932 22.1557 27.1875 22.6562 27.1875H27.1875V22.6562C27.1875 22.1557 27.5932 21.75 28.0938 21.75Z" fill="#1E1E1E"/>
  <path d="M7.25 7.25H9.0625V9.0625H7.25V7.25Z" fill="#1E1E1E"/>
  <path d="M12.6875 3.625H3.625V12.6875H12.6875V3.625ZM5.4375 5.4375H10.875V10.875H5.4375V5.4375Z" fill="#1E1E1E"/>
  <path d="M9.0625 19.9375H7.25V21.75H9.0625V19.9375Z" fill="#1E1E1E"/>
  <path d="M12.6875 16.3125H3.625V25.375H12.6875V16.3125ZM5.4375 18.125H10.875V23.5625H5.4375V18.125Z" fill="#1E1E1E"/>
  <path d="M19.9375 7.25H21.75V9.0625H19.9375V7.25Z" fill="#1E1E1E"/>
  <path d="M16.3125 3.625H25.375V12.6875H16.3125V3.625ZM18.125 5.4375V10.875H23.5625V5.4375H18.125Z" fill="#1E1E1E"/>
  <path d="M14.5 14.5V18.125H16.3125V19.9375H14.5V21.75H18.125V18.125H19.9375V21.75H21.75V19.9375H25.375V18.125H19.9375V14.5H14.5ZM18.125 18.125H16.3125V16.3125H18.125V18.125Z" fill="#1E1E1E"/>
  <path d="M25.375 21.75H23.5625V23.5625H19.9375V25.375H25.375V21.75Z" fill="#1E1E1E"/>
  <path d="M18.125 25.375V23.5625H14.5V25.375H18.125Z" fill="#1E1E1E"/>
  <path d="M21.75 16.3125H25.375V14.5H21.75V16.3125Z" fill="#1E1E1E"/>
</svg>